<svg id="圖層_1" data-name="圖層 1" xmlns="http://www.w3.org/2000/svg" viewBox="0 0 14.17 14.17"><defs><style>.cls-1{fill:#fadbc3;}</style></defs><path class="cls-1" d="M10.68,7.54a.42.42,0,0,0-.6,0L7.26,10.37a.51.51,0,0,1-.71,0L3.73,7.54a.42.42,0,1,0-.6.6l3.12,3.12a.93.93,0,0,0,1.31,0l3.12-3.12A.42.42,0,0,0,10.68,7.54Z"/><path class="cls-1" d="M10.68,2.61a.42.42,0,0,0-.6,0L7.26,5.43a.5.5,0,0,1-.71,0L3.73,2.61a.42.42,0,0,0-.6.6L6.25,6.33a.93.93,0,0,0,1.31,0l3.12-3.12A.42.42,0,0,0,10.68,2.61Z"/></svg>