<?xml version="1.0" encoding="utf-8"?>
<!-- Generator: Adobe Illustrator 26.0.1, SVG Export Plug-In . SVG Version: 6.00 Build 0)  -->
<svg version="1.1" id="圖層_1" xmlns="http://www.w3.org/2000/svg" xmlns:xlink="http://www.w3.org/1999/xlink" x="0px" y="0px"
	 viewBox="0 0 23.9 23.9" style="enable-background:new 0 0 23.9 23.9;" xml:space="preserve">
<style type="text/css">
	.st0{fill:#FFFFFF;}
	.st1{fill:#472B16;}
</style>
<ellipse transform="matrix(0.7071 -0.7071 0.7071 0.7071 -4.9582 11.97)" class="st0" cx="12" cy="12" rx="11.9" ry="11.9"/>
<path class="st1" d="M17.1,5.3H6.8C6,5.3,5.3,6,5.3,6.8v10.3c0,0.9,0.7,1.5,1.5,1.5h10.3c0.9,0,1.5-0.7,1.5-1.5V6.8
	C18.7,6,18,5.3,17.1,5.3z M12,9.4c1.4,0,2.6,1.2,2.6,2.6s-1.2,2.6-2.6,2.6S9.4,13.4,9.4,12l0,0C9.4,10.6,10.6,9.4,12,9.4z M17,16.5
	c0,0.3-0.2,0.5-0.5,0.5l0,0h-9C7.2,17,7,16.7,7,16.5v-5.6h1c-0.1,0.2-0.1,0.4-0.1,0.5c0,0.2,0,0.4,0,0.6c0,2.3,1.8,4.1,4.1,4.1
	c2.3,0,4.1-1.8,4.1-4.1c0-0.2,0-0.4,0-0.6c0-0.2-0.1-0.4-0.1-0.5h1V16.5z M17,8.7c0,0.3-0.2,0.5-0.5,0.5c0,0,0,0,0,0h-1.2
	c-0.3,0-0.5-0.2-0.5-0.5c0,0,0,0,0,0V7.5C14.8,7.2,15,7,15.3,7h1.2C16.7,7,17,7.2,17,7.5V8.7z"/>
</svg>
