<svg id="圖層_1" data-name="圖層 1" xmlns="http://www.w3.org/2000/svg" viewBox="0 0 24 24"><defs><style>.cls-1{fill:#61330c;}.cls-2{fill:#fff;}</style></defs><path class="cls-1" d="M2.79,15.9A10,10,0,0,0,8.1,21.21,9.68,9.68,0,0,0,12,22a9.68,9.68,0,0,0,3.9-.79,10,10,0,0,0,5.31-5.31A9.68,9.68,0,0,0,22,12a9.68,9.68,0,0,0-.79-3.9A9.87,9.87,0,0,0,15.9,2.79,9.68,9.68,0,0,0,12,2a9.68,9.68,0,0,0-3.9.79A9.87,9.87,0,0,0,2.79,8.1,9.68,9.68,0,0,0,2,12,9.68,9.68,0,0,0,2.79,15.9Z"/><path class="cls-2" d="M11.24,12l4-4a1.68,1.68,0,0,0,0-2.36h0a1.69,1.69,0,0,0-2.38,0L7.69,10.82a1.65,1.65,0,0,0,0,2.36l5.16,5.17a1.69,1.69,0,0,0,2.38,0h0a1.68,1.68,0,0,0,0-2.36Z"/></svg>