<svg id="圖層_1" data-name="圖層 1" xmlns="http://www.w3.org/2000/svg" viewBox="0 0 90.56 75.47"><defs><style>.cls-1{fill:#f2c691;}.cls-2{fill:#ecc28f;}</style></defs><path class="cls-1" d="M41.69,13.84a2.63,2.63,0,0,1,2.57,0,.47.47,0,0,1,.26.31.41.41,0,0,1-.09.3.46.46,0,0,1-.29.17.55.55,0,0,1-.42-.1,1.73,1.73,0,0,0-1.68,0,1.76,1.76,0,0,0-.95,1.13A1.84,1.84,0,0,0,41.27,17a1.93,1.93,0,0,0,1.07.95,1.63,1.63,0,0,0,1.31-.1,1.7,1.7,0,0,0,.62-.46,1.8,1.8,0,0,0,.34-.83.65.65,0,0,1,.2-.39.5.5,0,0,1,.33-.1.39.39,0,0,1,.26.17.5.5,0,0,1,.05.42A2.81,2.81,0,0,1,44,18.6a2.55,2.55,0,0,1-2,.13,2.59,2.59,0,0,1-1.5-1.24,2.49,2.49,0,0,1-.28-1.88A2.65,2.65,0,0,1,41.69,13.84Z" transform="translate(-13.54 -9.83)"/><path class="cls-1" d="M51.47,15.26A2.44,2.44,0,0,1,50,16.36a2.39,2.39,0,0,1-1.86-.19,2.69,2.69,0,0,1-1.36-1.58,2.54,2.54,0,0,1,.2-2.13,2.63,2.63,0,0,1,1.69-1.24,2.57,2.57,0,0,1,2.06.22,2.53,2.53,0,0,1,1.21,1.75A2.82,2.82,0,0,1,51.47,15.26ZM51,13.37a1.85,1.85,0,0,0-.88-1.24A1.63,1.63,0,0,0,48.82,12a1.69,1.69,0,0,0-1.1.79,2,2,0,0,0-.16,1.53,2,2,0,0,0,.95,1.16,1.54,1.54,0,0,0,1.24.12,1.64,1.64,0,0,0,1-.73A2.1,2.1,0,0,0,51,13.37Z" transform="translate(-13.54 -9.83)"/><path class="cls-1" d="M53.81,10.62a.41.41,0,0,1,.4-.53c.31,0,.48.11.51.43l.3,2.94a1.06,1.06,0,0,0,.41.8,1.54,1.54,0,0,0,1,.21,1.34,1.34,0,0,0,.88-.35,1.07,1.07,0,0,0,.28-.84c0-1.18-.05-1.77-.09-3A.41.41,0,0,1,58,9.83c.31,0,.47.15.47.48,0,1.18,0,1.77,0,2.95A1.91,1.91,0,0,1,58,14.67a2.24,2.24,0,0,1-1.49.6,2.4,2.4,0,0,1-1.66-.4,1.89,1.89,0,0,1-.65-1.31C54,12.38,54,11.8,53.81,10.62Z" transform="translate(-13.54 -9.83)"/><path class="cls-1" d="M61.72,10.09c.69.05,1,.09,1.72.17l.29,0a2.08,2.08,0,0,1,1.31.57,1.29,1.29,0,0,1,.28,1.18,1.43,1.43,0,0,1-.9,1.14,2.44,2.44,0,0,1-1.21.06l-.23,0c-.53-.06-.8-.09-1.33-.13,0,.71-.08,1.07-.14,1.79,0,.32-.17.46-.44.44s-.39-.18-.37-.5c.09-1.65.13-2.48.23-4.13C61,10.26,61.22,10.05,61.72,10.09Zm0,2.2c.54.05.81.07,1.35.14a2.65,2.65,0,0,0,1,0,.6.6,0,0,0,.4-.52.63.63,0,0,0-.17-.55,1.75,1.75,0,0,0-.92-.29c-.61-.08-.91-.11-1.52-.16C61.78,11.46,61.76,11.73,61.72,12.29Z" transform="translate(-13.54 -9.83)"/><path class="cls-1" d="M67.78,11.39a.47.47,0,1,1,.9.23l-1,3.87c1,.27,1.51.43,2.49.77.32.12.43.3.34.55s-.29.31-.59.21c-1-.36-1.54-.52-2.58-.8a.6.6,0,0,1-.5-.8C67.22,13.81,67.41,13,67.78,11.39Z" transform="translate(-13.54 -9.83)"/><path class="cls-1" d="M73.89,13.77c.17-.39.49-.49,1-.28A31.8,31.8,0,0,1,77.75,15c.34.2.44.41.31.64s-.36.24-.68.06c-1.06-.6-1.6-.87-2.7-1.38-.22.49-.32.74-.54,1.23,1,.44,1.44.68,2.38,1.2.31.18.41.39.28.62s-.35.25-.65.08c-.92-.5-1.39-.74-2.33-1.18l-.57,1.27c1,.47,1.51.73,2.49,1.28.3.17.38.38.25.6s-.34.26-.63.1a28.31,28.31,0,0,0-2.57-1.32.6.6,0,0,1-.37-.87Z" transform="translate(-13.54 -9.83)"/><path class="cls-1" d="M80.07,22.09A24.06,24.06,0,0,0,58.82,34.91a24,24,0,1,0,0,22.43A24,24,0,1,0,80.07,22.09Zm-14.9,6.83c-.67,4.13-2.08,11.29-3.67,14.94a23.79,23.79,0,0,0-2-7.53A23.09,23.09,0,0,1,65.17,28.92Zm-4.83,17.2a22.64,22.64,0,0,1-1.51,8.18,22.81,22.81,0,0,1,0-16.35A22.42,22.42,0,0,1,60.34,46.12ZM20.75,61.45a22.74,22.74,0,0,1,1.93-32.53c-.8,4.87-2.62,13.95-4.55,16.54a.62.62,0,0,0,.05.79.64.64,0,0,0,1,0,14.19,14.19,0,0,0,1.6-3.37Zm5.38-23.83V65.8A22.57,22.57,0,0,1,22,62.73V38.56c1-4.14,1.77-8.58,2.05-10.33a.68.68,0,0,0-.06-.38,22.74,22.74,0,0,1,28,.68H27.12a.63.63,0,1,0,0,1.26H34c0,2.58-.13,5-.26,7.2h-7A.63.63,0,0,0,26.13,37.62ZM35.61,37c-.25-3.51-.33-6.26-.35-7.2H45.38c0,.94-.1,3.69-.35,7.2Zm9.32,1.27c-.57,7.09-1.83,16.58-4.61,21.08-2.78-4.5-4-14-4.61-21.08Zm-17.53.63a.63.63,0,0,1,.63-.63h5.62C32.53,56.19,29.12,62.59,27.4,64.7Zm10.18,30a22.54,22.54,0,0,1-10.17-2.4c1.47-1.18,5.73-6.18,7.29-25.18.7,6.94,2.09,15.09,4.83,19.13h0a.84.84,0,0,0,.79.45.83.83,0,0,0,.79-.45c2.74-4,4.13-12.19,4.83-19.12,1.11,13.52,3.58,19.93,5.41,22.92A22.61,22.61,0,0,1,37.58,68.89Zm14.76-5.45c-1.88-3.12-4.42-10-5.35-25.18h5.19a.63.63,0,0,1,.63.63V63s0,0,0,.06Zm1.74-1.64V37.62a.64.64,0,0,0-.63-.63H46.91q-.18-3.33-.25-7.2h6.76a23.17,23.17,0,0,1,4.71,6.54,24,24,0,0,0,0,19.59A23,23,0,0,1,54.08,61.8Zm9.17-.35a22.87,22.87,0,0,1-3.73-5.53,23.88,23.88,0,0,0,2.09-9.68l0,0a14.16,14.16,0,0,0,1.61-3.37Zm5.38-23.83V65.8a23,23,0,0,1-4.12-3.07V38.56c1-4.14,1.78-8.58,2-10.33a.6.6,0,0,0-.06-.38,22.75,22.75,0,0,1,28,.68H69.61a.63.63,0,1,0,0,1.26h6.87q-.08,3.87-.26,7.2h-7A.63.63,0,0,0,68.63,37.62ZM78.11,37c-.26-3.51-.33-6.26-.36-7.2H87.88c0,.94-.1,3.69-.35,7.2Zm9.32,1.27c-.57,7.09-1.83,16.58-4.61,21.08-2.79-4.5-4-14-4.62-21.08Zm-17.54.63a.64.64,0,0,1,.64-.63h5.62C75,56.19,71.61,62.59,69.89,64.7Zm10.18,30a22.53,22.53,0,0,1-10.16-2.4c1.47-1.18,5.73-6.18,7.29-25.18.7,6.94,2.09,15.09,4.82,19.13h0a.92.92,0,0,0,1.58,0c2.74-4,4.13-12.19,4.83-19.12C89.55,54.84,92,61.25,93.85,64.24A22.64,22.64,0,0,1,80.07,68.89Zm14.77-5.45c-1.88-3.12-4.42-10-5.36-25.18h5.2a.63.63,0,0,1,.63.63V63s0,0,0,.06Zm1.74-1.64V37.62a.64.64,0,0,0-.64-.63H89.41c-.12-2.22-.21-4.62-.25-7.2h6.76a22.75,22.75,0,0,1,.66,32Z" transform="translate(-13.54 -9.83)"/><path class="cls-1" d="M29.16,85.29a1.69,1.69,0,0,1,0-.48V78.89l-.16.32a5.37,5.37,0,0,1-.81,1.34c-.07.07-.12.1-.15.1a.32.32,0,0,1-.23-.07.5.5,0,0,1-.09-.33,1.45,1.45,0,0,1,.14-.41A16.7,16.7,0,0,0,29,77.37a17,17,0,0,0,.72-2.09.93.93,0,0,1,.22-.5.38.38,0,0,1,.29-.12.46.46,0,0,1,.33.1.29.29,0,0,1,.08.22.91.91,0,0,1,0,.23,19.89,19.89,0,0,1-.74,2v7.61a1.69,1.69,0,0,1,0,.48Zm4.89-.12a1.51,1.51,0,0,1,0-.38v-6.5H32.19a.61.61,0,0,0-.28.06.48.48,0,0,0-.25.46v6a1.55,1.55,0,0,1,0,.4H31l0-.09a2.41,2.41,0,0,1,0-.31V78.62a1.16,1.16,0,0,1,.24-.82.89.89,0,0,1,.67-.22H34V76H31.4a.63.63,0,0,0-.31.1v-.4a.45.45,0,0,1,.1-.32.28.28,0,0,1,.21-.07h6.43a.59.59,0,0,0,.31-.09v.4A.41.41,0,0,1,38,76a.27.27,0,0,1-.21.07H34.69v1.54h2.22a1.16,1.16,0,0,1,.82.24.87.87,0,0,1,.22.67v5.57a1.3,1.3,0,0,1-.25.91.51.51,0,0,1-.21.15.73.73,0,0,1-.24.07h-.9a1.35,1.35,0,0,0-.48.07v-.45a.38.38,0,0,1,.1-.29.51.51,0,0,1,.38-.11h.37a.44.44,0,0,0,.46-.29.65.65,0,0,0,0-.21V78.82a.52.52,0,0,0-.13-.38.58.58,0,0,0-.39-.15h-2v6.5a1.46,1.46,0,0,1,0,.38ZM32,83.27c-.07,0-.1-.11-.1-.23a.51.51,0,0,1,.08-.25,6.59,6.59,0,0,0,.85-2.74V80H32.3l-.15,0-.15.07v-.41a.28.28,0,0,1,.32-.32h.38a.62.62,0,0,1,.41.14s0,0,0,0a1.37,1.37,0,0,1,.11.66h0a8.64,8.64,0,0,0,.48,2.65.67.67,0,0,1,.05.23c0,.09,0,.15-.05.18a.21.21,0,0,1-.17.06.17.17,0,0,1-.12-.06,1.11,1.11,0,0,1-.23-.49,8.37,8.37,0,0,1-.2-1.3h-.17a3.76,3.76,0,0,1-.55,1.81.42.42,0,0,1-.12.08h-.06A.41.41,0,0,1,32,83.27Zm4.52-.14a4.3,4.3,0,0,1-.37-1.67h-.16a6.44,6.44,0,0,1-.37,1.5c-.1.24-.21.35-.32.35a.29.29,0,0,1-.21-.06A.25.25,0,0,1,35,83a1.09,1.09,0,0,1,.07-.25,7.92,7.92,0,0,0,.85-2.73V80h-.52a.55.55,0,0,0-.29.09v-.41a.29.29,0,0,1,.08-.24.33.33,0,0,1,.24-.08h.38a.71.71,0,0,1,.43.14.53.53,0,0,1,.09.21,1.67,1.67,0,0,1,0,.46,7.38,7.38,0,0,0,.48,2.59.87.87,0,0,1,.09.29.25.25,0,0,1-.06.19.29.29,0,0,1-.22.07C36.59,83.27,36.53,83.22,36.47,83.13Z" transform="translate(-13.54 -9.83)"/><path class="cls-1" d="M46.7,85.3a1.69,1.69,0,0,1,0-.48V78.9l-.15.32a5.62,5.62,0,0,1-.82,1.34c-.06.07-.11.1-.15.1a.29.29,0,0,1-.22-.07.44.44,0,0,1-.1-.33,2.11,2.11,0,0,1,.14-.41,15.65,15.65,0,0,0,1.21-2.46,15.34,15.34,0,0,0,.71-2.1.93.93,0,0,1,.23-.5.36.36,0,0,1,.28-.12.46.46,0,0,1,.34.11.27.27,0,0,1,.07.21,1.43,1.43,0,0,1,0,.23,17.56,17.56,0,0,1-.75,2v7.61a2.12,2.12,0,0,1,0,.48Zm4.9-.12a1.37,1.37,0,0,1,0-.38V78.3H49.74a.65.65,0,0,0-.29.06.48.48,0,0,0-.24.46v6a1.65,1.65,0,0,1,0,.4H48.5v-.09a1.37,1.37,0,0,1,0-.31V78.63a1.13,1.13,0,0,1,.25-.82.86.86,0,0,1,.66-.22h2.19V76.05H49a.59.59,0,0,0-.31.09v-.4a.41.41,0,0,1,.1-.32.25.25,0,0,1,.21-.07h6.43a.58.58,0,0,0,.3-.09v.4a.45.45,0,0,1-.09.32.28.28,0,0,1-.21.07H52.23V77.6h2.22a1.16,1.16,0,0,1,.82.24.89.89,0,0,1,.23.67v5.58a1.34,1.34,0,0,1-.26.91.6.6,0,0,1-.21.14.62.62,0,0,1-.23.07l-.21,0h-.7a1.26,1.26,0,0,0-.47.07v-.45a.42.42,0,0,1,.09-.29.57.57,0,0,1,.38-.11h.38a.43.43,0,0,0,.45-.29.65.65,0,0,0,0-.21V78.83a.58.58,0,0,0-.13-.38.54.54,0,0,0-.4-.14h-2V84.8a1.31,1.31,0,0,1,0,.38Zm-2.1-1.9c-.07,0-.11-.11-.11-.23a.69.69,0,0,1,.08-.25,6.61,6.61,0,0,0,.86-2.74V80h-.49l-.15,0-.14.07v-.41a.33.33,0,0,1,.07-.24.37.37,0,0,1,.25-.08h.37a.6.6,0,0,1,.41.14l0,0a1.67,1.67,0,0,1,.11.66h0a8.57,8.57,0,0,0,.48,2.64,1.21,1.21,0,0,1,0,.23.31.31,0,0,1,0,.19.3.3,0,0,1-.18,0,.19.19,0,0,1-.12-.06,1.07,1.07,0,0,1-.22-.48,7.46,7.46,0,0,1-.21-1.31h-.16a3.73,3.73,0,0,1-.56,1.81.21.21,0,0,1-.11.08h-.07A.33.33,0,0,1,49.5,83.28ZM54,83.15a4.18,4.18,0,0,1-.36-1.68h-.17a6.05,6.05,0,0,1-.36,1.5q-.16.36-.33.36a.29.29,0,0,1-.21-.06.28.28,0,0,1-.06-.2,1.75,1.75,0,0,1,.07-.26,7.91,7.91,0,0,0,.86-2.73V80h-.52a.58.58,0,0,0-.3.09v-.41a.28.28,0,0,1,.32-.32h.38a.69.69,0,0,1,.43.14.4.4,0,0,1,.1.21,3.17,3.17,0,0,1,.05.46,6.92,6.92,0,0,0,.48,2.59.84.84,0,0,1,.08.29.37.37,0,0,1,0,.2.37.37,0,0,1-.23.06A.23.23,0,0,1,54,83.15Z" transform="translate(-13.54 -9.83)"/><path class="cls-1" d="M63,77.4a.56.56,0,0,1,.1-.38.32.32,0,0,1,.2-.07h1.16V75.09a1.69,1.69,0,0,1,0-.42h.71a1.86,1.86,0,0,1,0,.42V77H66a1.48,1.48,0,0,0,.46-.07v.44a.37.37,0,0,1-.09.27.54.54,0,0,1-.37.11h-.82v2.54L66,80h.13a.25.25,0,0,1,.19.07.44.44,0,0,1,.09.31.33.33,0,0,1-.08.22.55.55,0,0,1-.17.1l-1,.34v3.13h0v.15A1,1,0,0,1,65,85a1,1,0,0,1-.75.23h-.77a1.54,1.54,0,0,0-.4,0v-.46a.44.44,0,0,1,.09-.31.41.41,0,0,1,.31-.1h.45a.48.48,0,0,0,.37-.14.59.59,0,0,0,.15-.4h0V81.25a13.07,13.07,0,0,1-1.31.35.3.3,0,0,1-.23-.08.47.47,0,0,1-.1-.35c0-.22.23-.38.69-.47l.95-.23V77.71H63.25a.55.55,0,0,0-.3.09ZM73.29,79a.41.41,0,0,1-.31.1c-.34,0-.85-.32-1.54-1a10.14,10.14,0,0,1-1.78-2.11l-.07-.11-.07.11a11.83,11.83,0,0,1-1.63,2,6.38,6.38,0,0,1-1.09,1,.91.91,0,0,1-.4.16.47.47,0,0,1-.32-.1.49.49,0,0,1-.1-.32.41.41,0,0,1,.14-.24,2.77,2.77,0,0,1,.44-.38,7.81,7.81,0,0,0,2.55-3.12.53.53,0,0,1,.47-.38.48.48,0,0,1,.36.1A.24.24,0,0,1,70,75s0,.13-.09.31l0,0a8.47,8.47,0,0,0,3.12,2.92.5.5,0,0,1,.34.45A.45.45,0,0,1,73.29,79Zm-1,2a.85.85,0,0,1,.2.62v2.28a1.12,1.12,0,0,1-.23.78.78.78,0,0,1-.6.21H67.87a1.07,1.07,0,0,1-.77-.23.78.78,0,0,1-.21-.6V81.75a1.08,1.08,0,0,1,.23-.76.83.83,0,0,1,.61-.2h3.8A1.08,1.08,0,0,1,72.3,81Zm-4.85-1.9a.61.61,0,0,1,.06-.3.25.25,0,0,1,.25-.13h3.75a1,1,0,0,0,.36-.07v.43a.4.4,0,0,1-.09.29.41.41,0,0,1-.27.08H67.75a.58.58,0,0,0-.3.09Zm4.14,2.53a.53.53,0,0,0-.36-.13H68.15a.47.47,0,0,0-.34.12.5.5,0,0,0-.14.36h0v1.69a.48.48,0,0,0,.12.35.56.56,0,0,0,.36.14h3.08a.43.43,0,0,0,.44-.28.71.71,0,0,0,0-.21V82A.48.48,0,0,0,71.59,81.65Z" transform="translate(-13.54 -9.83)"/><path class="cls-1" d="M80.57,79.32a.49.49,0,0,1,0-.19c.07-.12.21-.18.44-.18h4.13V75.3a2.16,2.16,0,0,1,0-.57H86a2.17,2.17,0,0,1,0,.56V79h4.13a.49.49,0,0,0,.3-.1v.4a.47.47,0,0,1-.1.35.28.28,0,0,1-.2.07H87v3.88a.72.72,0,0,0,.14.49,1.59,1.59,0,0,0,1,.19,3.77,3.77,0,0,0,1.55-.18c.19-.12.31-.41.34-.89a.87.87,0,0,1,.12-.41.32.32,0,0,1,.27-.12.44.44,0,0,1,.32.11.49.49,0,0,1,.11.35,2.12,2.12,0,0,1-.35,1.45,1.3,1.3,0,0,1-.6.26,8.1,8.1,0,0,1-1.58.12c-.42,0-.76,0-1,0a2,2,0,0,1-.55-.09c-.3-.12-.44-.42-.44-.9V79.67H84.46a12.67,12.67,0,0,1-.14,1.81A7,7,0,0,1,84,82.74a3.72,3.72,0,0,1-1.5,1.73,3.28,3.28,0,0,1-1.63.64.37.37,0,0,1-.27-.09.53.53,0,0,1-.11-.36.29.29,0,0,1,.12-.26,3.45,3.45,0,0,1,.74-.29,3.16,3.16,0,0,0,1.79-1.36,6,6,0,0,0,.62-3v-.09H81.05a1.34,1.34,0,0,0-.48.08Zm1.23-3a.64.64,0,0,1-.16-.39.37.37,0,0,1,.12-.26.36.36,0,0,1,.26-.13c.12,0,.28.11.46.32a11.06,11.06,0,0,1,.91,1.26.69.69,0,0,1,.13.35.36.36,0,0,1-.13.27.49.49,0,0,1-.33.14.42.42,0,0,1-.37-.26A10.58,10.58,0,0,0,81.8,76.36Zm5.85.82a12.69,12.69,0,0,0,.79-1.36.42.42,0,0,1,.37-.29.59.59,0,0,1,.26.08.4.4,0,0,1,.2.34.69.69,0,0,1-.1.34,14.22,14.22,0,0,1-.8,1.31c-.18.22-.33.34-.47.34a.62.62,0,0,1-.19-.06.38.38,0,0,1-.18-.22s0-.07,0-.12a.37.37,0,0,1,0-.16A.88.88,0,0,1,87.65,77.18Z" transform="translate(-13.54 -9.83)"/><line class="cls-1" x1="45.31" y1="8.25" x2="45.31" y2="21.1"/><path class="cls-2" d="M59.4,18.08l-.55,12.85L58.3,18.08a.55.55,0,1,1,1.1,0Z" transform="translate(-13.54 -9.83)"/><path class="cls-2" d="M70.54,21.92a11,11,0,0,0-7,3.6,8.88,8.88,0,0,0-1.49,2.28,8.79,8.79,0,0,1,1.27-2.45A11.09,11.09,0,0,1,67,22.1a14.73,14.73,0,0,1,3.33-1.26.55.55,0,0,1,.68.37.56.56,0,0,1-.48.71Z" transform="translate(-13.54 -9.83)"/><path class="cls-2" d="M65.24,19.29C62.84,20.67,61.56,23.38,61,26a16.43,16.43,0,0,0-.4,2.8A16.84,16.84,0,0,1,60.71,26a12.78,12.78,0,0,1,1.86-5.45,8.88,8.88,0,0,1,2.09-2.15.55.55,0,0,1,.77.11.55.55,0,0,1-.19.81Z" transform="translate(-13.54 -9.83)"/><path class="cls-2" d="M46.63,20.48a11.21,11.21,0,0,1,8.26,7,10,10,0,0,0-4.66-4.73,12.67,12.67,0,0,0-3.86-1.16.55.55,0,1,1,.26-1.06Z" transform="translate(-13.54 -9.83)"/><path class="cls-2" d="M52.67,18.37c3.27,2.34,4.2,6.64,4.08,10.44a16.5,16.5,0,0,0-1.24-5.46,8.61,8.61,0,0,0-3.42-4.06.54.54,0,1,1,.58-.92Z" transform="translate(-13.54 -9.83)"/></svg>