<svg id="圖層_1" data-name="圖層 1" xmlns="http://www.w3.org/2000/svg" viewBox="0 0 17.1 17.16"><defs><style>.cls-1{fill:#472b16;}</style></defs><path class="cls-1" d="M15.72,14.51l-4.17-4.17a.79.79,0,0,1-.17-1,3.32,3.32,0,0,0,.43-1,3.85,3.85,0,0,0,.35-1.74,5.86,5.86,0,0,0-1.57-3.91,5.5,5.5,0,0,0-4-1.65A5.8,5.8,0,0,0,2.68,2.68,5.82,5.82,0,0,0,1.11,6.51a5.86,5.86,0,0,0,1.57,3.91,5.54,5.54,0,0,0,3.91,1.66,6,6,0,0,0,1.74-.26,4.64,4.64,0,0,0,1-.44.91.91,0,0,1,1,.17l4.26,4.27a.82.82,0,0,0,1.13,0A1,1,0,0,0,15.72,14.51ZM10.33,6.6a3.78,3.78,0,0,1-3.82,3.74h0a3.75,3.75,0,0,1-2.7-1.05,3.68,3.68,0,0,1-1-2.78A3.46,3.46,0,0,1,3.9,3.81,3.83,3.83,0,0,1,6.59,2.68a3.53,3.53,0,0,1,2.7,1.13,3.77,3.77,0,0,1,1,2.7Z"/></svg>