<?xml version="1.0" encoding="utf-8"?>
<!-- Generator: Adobe Illustrator 26.0.1, SVG Export Plug-In . SVG Version: 6.00 Build 0)  -->
<svg version="1.1" id="圖層_1" xmlns="http://www.w3.org/2000/svg" xmlns:xlink="http://www.w3.org/1999/xlink" x="0px" y="0px"
	 viewBox="0 0 24 24" style="enable-background:new 0 0 24 24;" xml:space="preserve">
<style type="text/css">
	.st0{fill:#472B16;}
</style>
<path class="st0" d="M11.7,7.3c0.3,0,0.6,0.3,0.6,0.6c0,0.3-0.3,0.6-0.6,0.6c-1.1,0-5.9,0-5.9,0v9.1h12.9v-6.6
	c0-0.3,0.3-0.6,0.6-0.6c0.3,0,0.6,0.3,0.6,0.6v7c0,0.5-0.4,0.8-0.8,0.8H5.5c-0.4,0-0.8-0.3-0.8-0.8V8.1c0-0.4,0.3-0.8,0.8-0.8H11.7z
	 M10.2,12.3c-0.8,2.3-0.9,2.6-0.9,2.9c0,0.3,0.3,0.5,0.5,0.5c0.2,0,0.8-0.2,2.9-0.9L10.2,12.3z M10.9,11.6l2.4,2.4l6.4-6.4
	c0.1-0.1,0.2-0.3,0.2-0.4c0-0.2-0.1-0.3-0.2-0.4c-0.4-0.4-1.1-1.1-1.5-1.5C18,5.1,17.9,5,17.7,5c-0.2,0-0.3,0.1-0.4,0.2L10.9,11.6z"
	/>
</svg>
