<svg id="圖層_1" data-name="圖層 1" xmlns="http://www.w3.org/2000/svg" viewBox="0 0 24 24"><defs><style>.cls-1{fill:#472b16;}</style></defs><path class="cls-1" d="M15.73,3.85A.68.68,0,0,0,15,3.17a.67.67,0,0,0-.68.68V5.22A.68.68,0,0,0,15,5.9a.69.69,0,0,0,.69-.68Z"/><path class="cls-1" d="M7.52,5.22a.68.68,0,1,1-1.36,0V3.85a.68.68,0,1,1,1.36,0Z"/><path class="cls-1" d="M16.41,4.53v.69a1.37,1.37,0,0,1-2.73,0V4.53H8.21v.69a1.37,1.37,0,0,1-2.74,0V4.53H4.11V16.84H17.78V4.53Zm0,10.94H5.47V8.63H16.41Z"/><path class="cls-1" d="M9.82,14.1a1.37,1.37,0,0,1-1.49-1.5h.86c0,.43.19.75.62.75a.52.52,0,0,0,.56-.54c0-.48-.33-.52-.88-.52v-.67c.39,0,.81,0,.81-.41a.45.45,0,0,0-.48-.45c-.4,0-.54.28-.54.68H8.42A1.34,1.34,0,0,1,9.81,10a1.25,1.25,0,0,1,1.35,1.12.83.83,0,0,1-.44.79.9.9,0,0,1,.58.88A1.35,1.35,0,0,1,9.82,14.1Z"/><path class="cls-1" d="M13.55,14.1h-.89V11.54h-1v-.7c.61,0,1-.16,1.13-.76h.73Z"/><polygon class="cls-1" points="20.51 6.58 20.51 19.57 5.47 19.57 5.47 18.2 19.14 18.2 19.14 6.58 20.51 6.58"/></svg>