<svg width="20" height="20" viewBox="0 0 20 20" fill="none" xmlns="http://www.w3.org/2000/svg">
<path d="M9.998 19.995C15.515 19.995 19.995 15.515 19.995 9.998C19.995 4.48 15.515 0 9.998 0C4.48 0 0 4.48 0 9.998C0 15.515 4.48 19.995 9.998 19.995ZM14.841 11.784C14.949 11.925 14.998 12.084 14.998 12.24C14.998 12.629 14.692 12.995 14.249 12.995H5.748C5.303 12.995 4.998 12.628 4.998 12.24C4.998 12.083 5.048 11.924 5.157 11.783C6.36 10.229 8.409 7.584 9.415 6.285C9.557 6.101 9.775 5.995 10.007 5.995C10.237 5.995 10.456 6.102 10.598 6.286L14.841 11.784Z" fill="#624A3A"/>
</svg>
